<svg width="94" height="94" viewBox="0 0 94 94" fill="none" xmlns="http://www.w3.org/2000/svg">
<path d="M45.2554 76.6362C34.3557 65.3771 23.4695 54.1404 12.5608 42.8723C12.6237 42.7959 12.6866 42.6836 12.7809 42.6072C15.3374 40.527 17.9028 38.4513 20.4548 36.3711C20.7603 36.124 20.949 36.1105 21.2949 36.3936C23.474 38.1727 25.689 39.907 27.8905 41.6592C31.6106 44.6155 35.3262 47.5718 39.0463 50.5281C39.3204 50.7483 39.5854 50.9819 39.837 51.1931C41.3646 49.4499 42.8787 47.7111 44.4063 45.9814C48.8542 40.9538 53.5448 36.1554 58.5049 31.6356C61.9465 28.4996 65.4779 25.4624 69.0452 22.4701C73.9155 18.3861 79.0643 14.666 84.3435 11.1301C85.6733 10.2405 87.0482 9.41834 88.3915 8.54672C88.751 8.31309 88.9037 8.34005 89.07 8.77136C89.5417 10.0024 90.0674 11.2155 90.5886 12.4286C90.7234 12.7431 90.6964 12.9318 90.4268 13.1879C82.762 20.4124 75.825 28.2929 69.4181 36.6452C65.2083 42.131 61.2456 47.7875 57.539 53.6237C54.5826 58.2739 51.7791 63.0183 49.2945 67.9425C47.9152 70.6787 46.7111 73.5092 45.4262 76.2948C45.3723 76.4071 45.3183 76.5194 45.2599 76.6362H45.2554Z" fill="#ECAD0D"/>
<path d="M87.4749 37.027C88.9082 37.027 90.301 37.0135 91.6937 37.045C91.8375 37.045 92.0801 37.2921 92.1071 37.4538C92.5564 40.4012 93.0371 43.3395 93.0506 46.3318C93.0686 49.8003 92.5923 53.2059 91.8645 56.58C90.3639 63.544 87.3357 69.7846 82.9371 75.3737C79.6888 79.5027 75.8474 82.9801 71.4129 85.7702C66.5561 88.8299 61.3264 91.0134 55.6519 92.0737C52.5338 92.6578 49.4068 93.0981 46.2258 93.0666C43.4807 93.0397 40.776 92.6668 38.0713 92.204C34.5983 91.6109 31.2736 90.5641 28.0567 89.1668C21.4701 86.3094 15.8405 82.14 11.1769 76.6856C6.72449 71.4694 3.55702 65.5388 1.75537 58.9253C0.573747 54.5807 -0.100184 50.1417 0.012138 45.6219C0.084024 42.7285 0.519833 39.8755 1.07695 37.0405C2.04741 32.0938 3.89847 27.4976 6.41448 23.144C10.0223 16.8989 14.8746 11.831 20.8501 7.82333C24.2692 5.53196 27.9533 3.77974 31.8486 2.44535C34.6971 1.4704 37.6355 0.913283 40.5963 0.450517C45.9518 -0.38965 51.2579 -0.00326304 56.519 1.18286C58.4015 1.60968 60.2481 2.18027 62.1082 2.70145C62.2205 2.7329 62.3688 2.90363 62.3688 3.01146C62.3867 4.53005 62.3822 6.04864 62.3822 7.5268C47.8837 2.3555 34.1805 3.65843 21.6408 12.77C11.9003 19.8463 6.27071 29.6003 4.86444 41.5558C1.96654 66.1319 20.302 87.0462 43.8716 88.412C57.7546 89.2207 69.5034 84.2966 78.5206 73.6664C87.5289 63.0453 90.283 50.6943 87.4839 37.0225L87.4749 37.027Z" fill="#F3F3F5"/>
</svg>
